<?xml version="1.0" standalone="no"?>
<!DOCTYPE svg PUBLIC "-//W3C//DTD SVG 20010904//EN"
 "http://www.w3.org/TR/2001/REC-SVG-20010904/DTD/svg10.dtd">
<svg version="1.0" xmlns="http://www.w3.org/2000/svg"
 width="592.000000pt" height="592.000000pt" viewBox="0 0 592.000000 592.000000"
 preserveAspectRatio="xMidYMid meet">
<metadata>
Created by potrace 1.14, written by Peter Selinger 2001-2017
</metadata>
<g transform="translate(0.000000,592.000000) scale(0.100000,-0.100000)"
fill="#000000" stroke="none">
<path d="M3225 5726 c-104 -106 -191 -199 -193 -205 -2 -6 98 -113 222 -238
123 -126 315 -320 426 -433 111 -113 416 -422 678 -688 262 -266 575 -583 695
-705 l217 -222 0 -1602 0 -1603 280 0 280 0 0 1721 0 1720 -214 217 c-118 119
-292 296 -386 392 -262 266 -1093 1110 -1475 1496 l-340 345 -190 -195z"/>
<path d="M2431 4920 c-106 -109 -192 -202 -191 -206 1 -5 209 -220 463 -477
254 -258 538 -546 630 -640 93 -95 315 -320 493 -500 l324 -329 0 -1369 0
-1369 280 0 280 0 0 1488 0 1488 -22 21 c-13 11 -237 237 -498 502 -664 675
-1142 1160 -1370 1391 l-195 197 -194 -197z"/>
<path d="M1728 4206 c-94 -95 -669 -679 -1161 -1180 -109 -110 -263 -267 -343
-347 l-144 -145 0 -1252 0 -1252 1755 0 1755 0 0 1250 0 1251 -36 37 c-20 20
-221 225 -447 455 -389 396 -562 571 -1058 1075 -116 116 -212 212 -214 212
-2 0 -50 -47 -107 -104z"/>
</g>
</svg>
