<svg width="104" height="30" viewBox="0 0 104 30" fill="none" xmlns="http://www.w3.org/2000/svg">
<path fill-rule="evenodd" clip-rule="evenodd" d="M54.1999 16.266C55.7863 16.266 57.0518 16.6619 57.9976 17.4543C58.9429 18.2467 59.4637 19.3153 59.56 20.6597H56.3388C56.2909 20.1311 56.0706 19.7113 55.6784 19.3996C55.2852 19.0869 54.7603 18.9314 54.104 18.9314C53.4947 18.9314 53.026 19.0427 52.6973 19.2675C52.3692 19.4912 52.2046 19.8039 52.2046 20.2035C52.2046 20.6519 52.4296 20.9922 52.8775 21.2248C53.3265 21.4563 54.0238 21.6925 54.9696 21.9328C55.931 22.1722 56.7242 22.4214 57.3492 22.6774C57.9742 22.9333 58.5137 23.3287 58.9705 23.8651C59.4272 24.4015 59.6637 25.1102 59.6798 25.9905C59.6798 26.7584 59.4673 27.4472 59.0429 28.0559C58.6184 28.6636 58.0091 29.1402 57.2159 29.4841C56.4227 29.828 55.4977 29.9997 54.4405 29.9997C53.3499 29.9997 52.3729 29.8035 51.5083 29.4118C50.6427 29.02 49.9574 28.4878 49.4527 27.8156C48.948 27.1434 48.672 26.3989 48.623 25.582H52.013C52.0765 26.095 52.3291 26.5191 52.7697 26.8552C53.2098 27.1912 53.7587 27.3593 54.416 27.3593C55.0566 27.3593 55.5581 27.2313 55.918 26.9753C56.2789 26.7194 56.4591 26.3911 56.4591 25.9905C56.4591 25.5586 56.2388 25.234 55.7977 25.0181C55.3576 24.8011 54.6566 24.5659 53.6952 24.31C52.7015 24.0696 51.8885 23.8214 51.2563 23.5655C50.6224 23.3095 50.0777 22.9167 49.6209 22.3891C49.1642 21.8605 48.9361 21.1483 48.9361 20.2513C48.9361 19.5157 49.1485 18.8435 49.573 18.2347C49.9975 17.626 50.6068 17.1463 51.4 16.7936C52.1932 16.4419 53.126 16.266 54.1999 16.266ZM74.1011 16.2663C75.0937 16.2663 75.9635 16.4666 76.7088 16.8662C77.454 17.2668 78.0504 17.771 78.4993 18.3786V16.4822H81.8882V29.7841H78.4993V27.8388C78.067 28.4631 77.4697 28.9797 76.7088 29.3871C75.9479 29.7955 75.0703 30 74.0766 30C72.9548 30 71.934 29.7118 71.0127 29.1353C70.0903 28.5599 69.3617 27.7472 68.8248 26.6989C68.2878 25.6505 68.0201 24.4456 68.0201 23.0845C68.0201 21.7401 68.2878 20.5482 68.8248 19.5071C69.3617 18.4676 70.0903 17.6674 71.0127 17.1066C71.934 16.5468 72.9626 16.2663 74.1011 16.2663ZM97.4383 16.2661C98.7039 16.2661 99.8387 16.5377 100.84 17.0819C101.84 17.6261 102.618 18.3992 103.171 19.3997C103.724 20.4002 104 21.5479 104 22.8455C104 23.3251 103.968 23.757 103.904 24.142H94.1697C94.2499 25.1024 94.5864 25.8547 95.1791 26.3989C95.7717 26.9431 96.5014 27.2147 97.3659 27.2147C98.6159 27.2147 99.5059 26.6794 100.034 25.6065H103.664C103.279 26.8875 102.542 27.9395 101.452 28.7641C100.363 29.5887 99.0247 29.9997 97.4383 29.9997C96.1561 29.9997 95.0072 29.7157 93.989 29.1481C92.9719 28.5794 92.1787 27.7756 91.6094 26.735C91.0412 25.6945 90.7569 24.4937 90.7569 23.1326C90.7569 21.757 91.0365 20.5484 91.598 19.5069C92.1584 18.4674 92.9437 17.6672 93.9536 17.1063C94.9629 16.5465 96.1248 16.2661 97.4383 16.2661ZM47.7339 13V15.7377H41.3644V19.9399H47.0136V22.6048H41.3644V27.0464H47.7339V29.784H38V13H47.7339ZM64.9197 13.1924V16.4821H67.8998V19.2432H64.9197V25.6784C64.9197 26.1264 65.0275 26.4505 65.2437 26.6508C65.4603 26.8511 65.8244 26.9505 66.3379 26.9505H67.8998V29.7839H65.7843C62.9479 29.7839 61.5298 28.4073 61.5298 25.6545V19.2432H59.9434V16.4821H61.5298V13.1924H64.9197ZM87.6574 13.1924V16.4821H90.6374V19.2432H87.6574V25.6784C87.6574 26.1264 87.7652 26.4505 87.9813 26.6508C88.198 26.8511 88.562 26.9505 89.0755 26.9505H90.6374V29.7839H88.5219C85.6856 29.7839 84.2674 28.4073 84.2674 25.6545V19.2432H82.681V16.4821H84.2674V13.1924H87.6574ZM74.9656 19.2199C74.3406 19.2199 73.7646 19.3713 73.2355 19.6762C72.7064 19.98 72.2782 20.4244 71.9496 21.0076C71.621 21.5929 71.4569 22.2843 71.4569 23.0845C71.4569 23.8857 71.621 24.5855 71.9496 25.1864C72.2782 25.7863 72.7105 26.2462 73.2475 26.5667C73.7844 26.8872 74.3573 27.0464 74.9656 27.0464C75.5906 27.0464 76.1755 26.8914 76.7213 26.5787C77.265 26.267 77.6983 25.8186 78.0191 25.2343C78.3389 24.65 78.4993 23.9492 78.4993 23.1324C78.4993 22.3166 78.3389 21.6163 78.0191 21.032C77.6983 20.4478 77.265 19.9993 76.7213 19.6877C76.1755 19.375 75.5906 19.2199 74.9656 19.2199ZM97.3425 19.0272C96.5092 19.0272 95.8082 19.2795 95.2389 19.7836C94.6707 20.2878 94.3218 20.9881 94.1937 21.884H100.515C100.499 21.0203 100.187 20.3278 99.5773 19.8081C98.969 19.2873 98.2237 19.0272 97.3425 19.0272Z" fill="#45525B"/>
<path fill-rule="evenodd" clip-rule="evenodd" d="M16.8331 0L29 12.477V29.9999H26.1768V13.6719L14.8348 2.0446L16.8331 0ZM8.85121 8.17811L17.702 17.2569V30H0V17.2569L8.85121 8.17811ZM12.8421 4.08902L23.3539 14.8669V29.9997H20.5307V16.0618L10.8494 6.13362L12.8421 4.08902Z" fill="#FF8A63"/>
</svg>
