<svg width="160" height="58" viewBox="0 0 160 58" fill="none" xmlns="http://www.w3.org/2000/svg">
<path fill-rule="evenodd" clip-rule="evenodd" d="M90.3418 38.5332C92.5607 38.5332 94.3309 39.0944 95.6539 40.2176C96.9761 41.3407 97.7046 42.8554 97.8393 44.761H93.3336C93.2666 44.0117 92.9585 43.4166 92.4099 42.9749C91.8599 42.5317 91.1256 42.3112 90.2077 42.3112C89.3554 42.3112 88.6998 42.469 88.2401 42.7876C87.7811 43.1047 87.5509 43.5479 87.5509 44.1142C87.5509 44.7499 87.8656 45.2322 88.4921 45.5618C89.1201 45.89 90.0955 46.2248 91.4185 46.5655C92.7632 46.9047 93.8727 47.2579 94.7469 47.6208C95.6211 47.9836 96.3758 48.544 97.0147 49.3044C97.6536 50.0647 97.9843 51.0691 98.0069 52.3168C98.0069 53.4053 97.7097 54.3817 97.1159 55.2445C96.5222 56.1058 95.6699 56.7813 94.5604 57.2687C93.4509 57.7562 92.1571 57.9996 90.6783 57.9996C89.1529 57.9996 87.7862 57.7215 86.577 57.1662C85.3662 56.6109 84.4075 55.8565 83.7016 54.9038C82.9957 53.951 82.6096 52.8957 82.5411 51.7379H87.2828C87.3717 52.465 87.725 53.0661 88.3413 53.5424C88.9569 54.0188 89.7247 54.257 90.6441 54.257C91.5401 54.257 92.2416 54.0756 92.745 53.7128C93.2499 53.35 93.5019 52.8846 93.5019 52.3168C93.5019 51.7047 93.1938 51.2446 92.5768 50.9385C91.9612 50.631 90.9806 50.2977 89.6358 49.9349C88.2459 49.5942 87.1087 49.2424 86.2243 48.8796C85.3378 48.5168 84.5758 47.96 83.9369 47.2122C83.298 46.463 82.979 45.4534 82.979 44.1821C82.979 43.1393 83.2762 42.1865 83.8699 41.3237C84.4636 40.4609 85.3159 39.781 86.4254 39.281C87.5349 38.7825 88.8396 38.5332 90.3418 38.5332ZM118.179 38.5337C119.567 38.5337 120.784 38.8176 121.826 39.384C122.869 39.9518 123.703 40.6664 124.331 41.5277V38.8397H129.071V57.694H124.331V54.9367C123.726 55.8216 122.891 56.5539 121.826 57.1313C120.762 57.7102 119.534 58 118.144 58C116.575 58 115.147 57.5915 113.859 56.7744C112.569 55.9588 111.549 54.8069 110.798 53.3209C110.047 51.835 109.673 50.127 109.673 48.1979C109.673 46.2923 110.047 44.6028 110.798 43.1272C111.549 41.6538 112.569 40.5196 113.859 39.7247C115.147 38.9312 116.586 38.5337 118.179 38.5337ZM150.822 38.5333C152.592 38.5333 154.179 38.9183 155.58 39.6896C156.979 40.461 158.067 41.5568 158.841 42.9749C159.614 44.393 160 46.0198 160 47.859C160 48.539 159.955 49.151 159.866 49.6967H146.25C146.362 51.0581 146.833 52.1244 147.662 52.8958C148.491 53.6671 149.511 54.0521 150.721 54.0521C152.469 54.0521 153.714 53.2933 154.453 51.7727H159.529C158.992 53.5882 157.96 55.0793 156.436 56.2482C154.912 57.417 153.041 57.9996 150.822 57.9996C149.028 57.9996 147.421 57.597 145.997 56.7924C144.574 55.9864 143.465 54.8471 142.669 53.3722C141.874 51.8973 141.476 50.1953 141.476 48.2661C141.476 46.3163 141.867 44.6032 142.653 43.1269C143.436 41.6534 144.535 40.5192 145.948 39.7243C147.359 38.9308 148.985 38.5333 150.822 38.5333ZM81.2975 33.9039V37.7844H72.3881V43.7407H80.29V47.5179H72.3881V53.8135H81.2975V57.6939H67.6821V33.9039H81.2975ZM105.336 34.1766V38.8395H109.505V42.7531H105.336V51.8746C105.336 52.5095 105.487 52.9689 105.789 53.2528C106.092 53.5368 106.602 53.6776 107.32 53.6776H109.505V57.6937H106.546C102.578 57.6937 100.595 55.7425 100.595 51.8406V42.7531H98.3756V38.8395H100.595V34.1766H105.336ZM137.141 34.1766V38.8395H141.309V42.7531H137.141V51.8746C137.141 52.5095 137.291 52.9689 137.594 53.2528C137.897 53.5368 138.406 53.6776 139.124 53.6776H141.309V57.6937H138.35C134.383 57.6937 132.399 55.7425 132.399 51.8406V42.7531H130.18V38.8395H132.399V34.1766H137.141ZM119.388 42.7202C118.514 42.7202 117.708 42.9347 116.968 43.3669C116.228 43.7976 115.629 44.4273 115.169 45.254C114.71 46.0836 114.48 47.0637 114.48 48.1979C114.48 49.3336 114.71 50.3254 115.169 51.1772C115.629 52.0274 116.234 52.6793 116.985 53.1336C117.736 53.5879 118.537 53.8135 119.388 53.8135C120.262 53.8135 121.08 53.5938 121.844 53.1506C122.604 52.7088 123.21 52.0732 123.659 51.245C124.106 50.4169 124.331 49.4235 124.331 48.2657C124.331 47.1094 124.106 46.1168 123.659 45.2887C123.21 44.4605 122.604 43.8248 121.844 43.3831C121.08 42.9399 120.262 42.7202 119.388 42.7202ZM150.688 42.4469C149.522 42.4469 148.542 42.8046 147.745 43.5192C146.951 44.2338 146.463 45.2264 146.283 46.4962H155.126C155.102 45.2721 154.666 44.2905 153.814 43.5538C152.963 42.8157 151.92 42.4469 150.688 42.4469Z" fill="white"/>
<path fill-rule="evenodd" clip-rule="evenodd" d="M32.7195 0L56.3691 23.995V57.694H50.8814V26.2928L28.8353 3.93205L32.7195 0ZM17.2046 15.7276L34.4085 33.1874V57.6941H0V33.1874L17.2046 15.7276ZM24.9619 7.86374L45.3944 28.5911V57.6936H39.9068V30.889L21.0885 11.7958L24.9619 7.86374Z" fill="white"/>
</svg>
